<svg width="188" height="144" viewBox="0 0 188 144" fill="none" xmlns="http://www.w3.org/2000/svg">
<path d="M51.9349 7C51.9349 5.89543 51.0395 5 49.9349 5H27.3924C26.2878 5 25.3924 5.89543 25.3924 7V34.132H51.9349V7Z" fill="#C0EAFF"/>
<path d="M11.8978 136.29C12.0255 137.288 12.8752 138.036 13.8816 138.036H142.839C143.482 138.036 144.085 137.727 144.461 137.206L171.399 99.8409C171.399 99.8409 177.012 92.0546 181.716 85.5301C182.669 84.2072 181.73 82.3617 180.099 82.3617C156.519 82.3617 123.47 82.3617 123.47 82.3617H25.3924H7.27211C6.06682 82.3617 5.13535 83.4199 5.28827 84.6154L7.23571 99.8409L11.8978 136.29Z" fill="#C0EAFF"/>
<path d="M25.3924 82.3617H7.27211C6.06682 82.3617 5.13535 83.4199 5.28827 84.6154L7.23571 99.8409M25.3924 82.3617C25.3924 82.3617 85.1684 82.3617 123.47 82.3617M25.3924 82.3617V34.132M25.3924 82.3617H123.47M51.9349 34.132V7C51.9349 5.89543 51.0395 5 49.9349 5H27.3924C26.2878 5 25.3924 5.89543 25.3924 7V34.132M51.9349 34.132H121.47C122.575 34.132 123.47 35.0274 123.47 36.132V58.085M51.9349 34.132H25.3924M123.47 82.3617C123.47 82.3617 156.519 82.3617 180.099 82.3617C181.73 82.3617 182.669 84.2072 181.716 85.5301C177.012 92.0546 171.399 99.8409 171.399 99.8409M123.47 67.1483V58.085M123.47 58.085H103.401M88.1881 58.085H77.5063M60.9982 58.085H48.698M7.23571 99.8409L11.8978 136.29C12.0255 137.288 12.8752 138.036 13.8816 138.036H142.839C143.482 138.036 144.085 137.727 144.461 137.206L171.399 99.8409M7.23571 99.8409H108.58M123.47 99.8409H136.418M150.013 99.8409H171.399" stroke="#1F7ECC" stroke-width="10" stroke-linecap="round"/>
</svg>
