<?xml version="1.0" encoding="utf-8"?>
<!-- Generator: Adobe Illustrator 24.1.2, SVG Export Plug-In . SVG Version: 6.00 Build 0)  -->
<svg version="1.1" id="Слой_1" xmlns="http://www.w3.org/2000/svg" xmlns:xlink="http://www.w3.org/1999/xlink" x="0px" y="0px"
	 viewBox="0 0 416 139" style="enable-background:new 0 0 416 139;" xml:space="preserve">
<style type="text/css">
	.st0{fill:#FFFFFF;}
	.st1{fill:none;stroke:#1F7ECC;stroke-width:12;stroke-linecap:round;}
</style>
<path class="st0" d="M0.1,19.1c0.2,0,6.8,0.9,1.4-1.5l17,8.6c0.2,0.1,0.5,0.1,0.7,0.1h21.8c0.5,0,1-0.2,1.4-0.5l15.9-13.2
	c0.3-0.2,0.7-0.4,1-0.5l22.9-3.8c0.5-0.1,1.1,0,1.5,0.3L112,26c0.3,0.2,0.8,0.3,1.2,0.3h22.6c0.3,0,0.6-0.1,0.9-0.2l30.7-13.9
	l12.3-5.6c0.6-0.3,1.2-0.3,1.8,0l13.6,5.7L219,26c0.3,0.2,0.7,0.3,1.1,0.3h16.8c0.3,0,0.6-0.1,0.9-0.2l33.5-15.5
	c0.1-0.1,0.3-0.1,0.4-0.1l17.4-4.1c0.4-0.1,0.8-0.1,1.2,0.1l16.8,5.7c0.3,0.1,0.7,0.3,0.9,0.6l12.1,13.3c0.3,0.3,0.6,0.5,1,0.6
	l18.1,5.6c0.6,0.2,1.3,0.1,1.8-0.2l21.5-13.4c0.2-0.1,0.4-0.2,0.6-0.3l22.4-5.5c1.1-0.3,1.7-1.3,1.7-2.3c0-4.2,3.4-8,17.1,1.8
	c6.7,4.8,17.7,2.1,21.6,20.1c5.1,23.2,2.8,76.1,3.6,96.1c0,1.1-0.9,2.1-2.1,2.1L323,133.5l-235.6,4L0.1,134c0,0,0-10.5,0-11.6V24.7
	c0-1.1,0.3-7.1,1.4-7.1L0.1,19.1z"/>
<path class="st1" d="M423.5,24.7c-8.8-9.2-32.7-23.4-58.2-7.2c-25.4,16.2-44.7,8.6-52.4,1.9l0.7,0.7c-8.8-9.2-26.3-18.7-51.8-2.5
	c-25.4,16.2-47.4,6.8-55.1,0l3.4,2.7c-8.8-9.2-29.7-20.3-55.1-4.1c-25.4,16.2-44.7,8.6-52.4,1.9l0.7,0.7C94.3,9.5,76.8,0,51.3,16.2
	C25.9,32.5,4,23-3.8,16.2"/>
</svg>
